<svg xmlns="http://www.w3.org/2000/svg" viewBox="0 0 64 64">
  <rect width="64" height="64" rx="12" fill="#176f63"/>
  <path d="M18 11h26a7 7 0 0 1 7 7v32a3 3 0 0 1-3 3H21a8 8 0 0 1-8-8V16a5 5 0 0 1 5-5Z" fill="#f7f8f5"/>
  <path d="M21 11v42" stroke="#d6e6df" stroke-width="5" stroke-linecap="round"/>
  <path d="M30 22h12M30 30h12M30 38h7" stroke="#176f63" stroke-width="4" stroke-linecap="round"/>
  <path d="M39 46l8-8 5 5-8 8-6 1 1-6Z" fill="#f4c95d" stroke="#176f63" stroke-width="3" stroke-linejoin="round"/>
</svg>
